<?xml version="1.0" encoding="UTF-8" standalone="no"?>
<!-- Created with Inkscape (http://www.inkscape.org/) -->

<svg
   xmlns:osb="http://www.openswatchbook.org/uri/2009/osb"
   xmlns:dc="http://purl.org/dc/elements/1.1/"
   xmlns:cc="http://creativecommons.org/ns#"
   xmlns:rdf="http://www.w3.org/1999/02/22-rdf-syntax-ns#"
   xmlns:svg="http://www.w3.org/2000/svg"
   xmlns="http://www.w3.org/2000/svg"
   xmlns:sodipodi="http://sodipodi.sourceforge.net/DTD/sodipodi-0.dtd"
   xmlns:inkscape="http://www.inkscape.org/namespaces/inkscape"
   width="200mm"
   height="190mm"
   viewBox="0 0 200 190"
   version="1.1"
   id="svg4565"
   inkscape:version="0.92.1 15371"
   sodipodi:docname="menuBtn.svg">
  <defs
     id="defs4559">
    <linearGradient
       id="linearGradient5114"
       osb:paint="solid">
      <stop
         style="stop-color:#000000;stop-opacity:1;"
         offset="0"
         id="stop5112" />
    </linearGradient>
  </defs>
  <sodipodi:namedview
     id="base"
     pagecolor="#ffffff"
     bordercolor="#666666"
     borderopacity="1.0"
     inkscape:pageopacity="0.0"
     inkscape:pageshadow="2"
     inkscape:zoom="0.35"
     inkscape:cx="825.82564"
     inkscape:cy="560"
     inkscape:document-units="mm"
     inkscape:current-layer="layer1"
     showgrid="false"
     inkscape:window-width="1366"
     inkscape:window-height="705"
     inkscape:window-x="0"
     inkscape:window-y="24"
     inkscape:window-maximized="1" />
  <metadata
     id="metadata4562">
    <rdf:RDF>
      <cc:Work
         rdf:about="">
        <dc:format>image/svg+xml</dc:format>
        <dc:type
           rdf:resource="http://purl.org/dc/dcmitype/StillImage" />
        <dc:title></dc:title>
      </cc:Work>
    </rdf:RDF>
  </metadata>
  <g
     inkscape:label="Layer 1"
     inkscape:groupmode="layer"
     id="layer1"
     transform="translate(0,-107)">
    <g
       id="g6610"
       transform="translate(-8.3154762,109.6131)">
      <path
         id="rect5110"
         d="M 22.872961,13.37741 H 194.84141 c 4.79225,0 8.65027,3.858023 8.65027,8.650275 v 6.487705 c 0,4.792253 -3.85802,8.650276 -8.65027,8.650276 H 22.872961 c -4.792252,0 -8.650275,-3.858023 -8.650275,-8.650276 v -6.487705 c 0,-4.792252 3.858023,-8.650275 8.650275,-8.650275 z"
         style="opacity:1;fill:#000000;fill-opacity:1;fill-rule:nonzero;stroke:#000000;stroke-width:6.33701277;stroke-linejoin:round;stroke-miterlimit:4;stroke-dasharray:none;stroke-dashoffset:9.99999905;stroke-opacity:1;paint-order:markers stroke fill"
         inkscape:connector-curvature="0" />
      <path
         id="rect6587"
         d="M 22.872961,79.108849 H 194.84141 c 4.79225,0 8.65027,3.858022 8.65027,8.650275 v 6.487705 c 0,4.792253 -3.85802,8.650271 -8.65027,8.650271 H 22.872961 c -4.792252,0 -8.650275,-3.858018 -8.650275,-8.650271 v -6.487705 c 0,-4.792253 3.858023,-8.650275 8.650275,-8.650275 z"
         style="opacity:1;fill:#000000;fill-opacity:1;fill-rule:nonzero;stroke:#000000;stroke-width:6.33701277;stroke-linejoin:round;stroke-miterlimit:4;stroke-dasharray:none;stroke-dashoffset:9.99999905;stroke-opacity:1;paint-order:markers stroke fill"
         inkscape:connector-curvature="0" />
      <path
         id="rect6602"
         d="M 22.872961,144.84029 H 194.84141 c 4.79225,0 8.65027,3.85802 8.65027,8.65027 v 6.48771 c 0,4.79225 -3.85802,8.65027 -8.65027,8.65027 H 22.872961 c -4.792252,0 -8.650275,-3.85802 -8.650275,-8.65027 v -6.48771 c 0,-4.79225 3.858023,-8.65027 8.650275,-8.65027 z"
         style="opacity:1;fill:#000000;fill-opacity:1;fill-rule:nonzero;stroke:#000000;stroke-width:6.33701277;stroke-linejoin:round;stroke-miterlimit:4;stroke-dasharray:none;stroke-dashoffset:9.99999905;stroke-opacity:1;paint-order:markers stroke fill"
         inkscape:connector-curvature="0" />
    </g>
  </g>
</svg>
