<?xml version="1.0" ?><!DOCTYPE svg  PUBLIC '-//W3C//DTD SVG 1.1//EN'  'http://www.w3.org/Graphics/SVG/1.1/DTD/svg11.dtd'><svg enable-background="new 0 0 24 24" height="24px" id="Layer_1" version="1.1" viewBox="0 0 24 24" width="24px" xml:space="preserve" xmlns="http://www.w3.org/2000/svg" xmlns:xlink="http://www.w3.org/1999/xlink"><g id="icon"><circle cx="12" cy="12" fill="#CB4147" r="11"/><path d="M12.4193,5.9544c-3.676,0,-5.5294,2.6355,-5.5294,4.8333c0,1.3307,0.5038,2.5146,1.5844,2.9558c0.1772,0.0724,0.3359,0.0025,0.3873,-0.1937c0.0357,-0.1358,0.1203,-0.4783,0.158,-0.6209c0.0518,-0.194,0.0317,-0.2621,-0.1113,-0.4312c-0.3116,-0.3675,-0.5107,-0.8433,-0.5107,-1.5173c0,-1.9553,1.4629,-3.7057,3.8093,-3.7057c2.0777,0,3.2192,1.2696,3.2192,2.9651c0,2.2309,-0.9873,4.1137,-2.4529,4.1137c-0.8094,0,-1.4153,-0.6694,-1.2211,-1.4904c0.2325,-0.9801,0.683,-2.0379,0.683,-2.7454c0,-0.6333,-0.3399,-1.1615,-1.0435,-1.1615c-0.8274,0,-1.4921,0.856,-1.4921,2.0026c0,0.7303,0.2468,1.2243,0.2468,1.2243s-0.8468,3.5877,-0.9952,4.2161c-0.2956,1.2513,-0.0444,2.7853,-0.0232,2.9402c0.0125,0.0918,0.1304,0.1136,0.1839,0.0443c0.0763,-0.0996,1.0618,-1.3162,1.3968,-2.5319c0.0948,-0.3442,0.5442,-2.1267,0.5442,-2.1267c0.2688,0.5128,1.0545,0.9644,1.89,0.9644c2.4872,0,4.1746,-2.2675,4.1746,-5.3026C17.3175,8.0918,15.3737,5.9544,12.4193,5.9544z" fill="#FFFFFF"/><path d="M4.2218,19.7782C6.2124,21.7688,8.9624,23,12,23c6.0751,0,11,-4.9249,11,-11c0,-3.0376,-1.2312,-5.7876,-3.2218,-7.7782L4.2218,19.7782z" fill="#231F20" opacity="0.1"/></g></svg>