<?xml version="1.0" encoding="UTF-8" standalone="no"?>
<!-- Created with Inkscape (http://www.inkscape.org/) -->

<svg
   xmlns:dc="http://purl.org/dc/elements/1.1/"
   xmlns:cc="http://creativecommons.org/ns#"
   xmlns:rdf="http://www.w3.org/1999/02/22-rdf-syntax-ns#"
   xmlns:svg="http://www.w3.org/2000/svg"
   xmlns="http://www.w3.org/2000/svg"
   xmlns:sodipodi="http://sodipodi.sourceforge.net/DTD/sodipodi-0.dtd"
   xmlns:inkscape="http://www.inkscape.org/namespaces/inkscape"
   width="400"
   height="270"
   viewBox="0 0 105.83333 71.4375"
   version="1.1"
   id="svg8078"
   inkscape:version="0.92.1 15371"
   sodipodi:docname="backgroundMain1.svg">
  <defs
     id="defs8072" />
  <sodipodi:namedview
     id="base"
     pagecolor="#ffffff"
     bordercolor="#666666"
     borderopacity="1.0"
     inkscape:pageopacity="0.0"
     inkscape:pageshadow="2"
     inkscape:zoom="1.4142136"
     inkscape:cx="243.47752"
     inkscape:cy="128.9089"
     inkscape:document-units="mm"
     inkscape:current-layer="layer1"
     showgrid="false"
     inkscape:measure-start="324.286,302.857"
     inkscape:measure-end="397.994,554.547"
     units="px"
     inkscape:window-width="1366"
     inkscape:window-height="705"
     inkscape:window-x="0"
     inkscape:window-y="24"
     inkscape:window-maximized="1" />
  <metadata
     id="metadata8075">
    <rdf:RDF>
      <cc:Work
         rdf:about="">
        <dc:format>image/svg+xml</dc:format>
        <dc:type
           rdf:resource="http://purl.org/dc/dcmitype/StillImage" />
        <dc:title />
      </cc:Work>
    </rdf:RDF>
  </metadata>
  <g
     inkscape:label="Layer 1"
     inkscape:groupmode="layer"
     id="layer1"
     transform="translate(0,-225.56249)">
    <rect
       style="opacity:1;fill:none;fill-opacity:1;fill-rule:evenodd;stroke:#000000;stroke-width:1.69008267;stroke-linecap:square;stroke-linejoin:miter;stroke-miterlimit:4;stroke-dasharray:none;stroke-dashoffset:9.99999905;stroke-opacity:1;paint-order:markers stroke fill"
       id="rect9480"
       width="2.4490371"
       height="0.42708379"
       x="58.759666"
       y="14.53587"
       ry="0" />
    <path
       style="opacity:1;fill:none;fill-opacity:1;fill-rule:evenodd;stroke:#000000;stroke-width:0.42105579;stroke-linejoin:miter;stroke-miterlimit:4;stroke-dasharray:none;stroke-dashoffset:9.99999905;stroke-opacity:0.30314965;paint-order:markers stroke fill"
       id="circle8641"
       sodipodi:type="arc"
       sodipodi:cx="-204.94019"
       sodipodi:cy="149.9308"
       sodipodi:rx="1.6447399"
       sodipodi:ry="1.6447399"
       sodipodi:start="0"
       sodipodi:end="4.947409"
       sodipodi:open="true"
       d="m -203.29545,149.9308 a 1.6447399,1.6447399 0 0 1 -1.10564,1.55388 1.6447399,1.6447399 0 0 1 -1.83043,-0.53524 1.6447399,1.6447399 0 0 1 -0.0943,-1.90476 1.6447399,1.6447399 0 0 1 1.76862,-0.7134"
       transform="matrix(-0.8660254,-0.5,-0.5,0.8660254,0,0)" />
    <circle
       r="1.6447399"
       cy="232.3139"
       cx="-96.709114"
       id="circle8643"
       style="opacity:1;fill:none;fill-opacity:1;fill-rule:evenodd;stroke:#000000;stroke-width:0.42105579;stroke-linejoin:miter;stroke-miterlimit:4;stroke-dasharray:none;stroke-dashoffset:9.99999905;stroke-opacity:0.30314965;paint-order:markers stroke fill"
       transform="scale(-1,1)" />
    <path
       transform="matrix(-0.45968645,-0.88808129,-0.93741891,0.34820366,0,0)"
       d="m -251.77814,14.504146 a 6.0043578,8.2308712 0 0 1 -3.45139,1.32957"
       sodipodi:open="true"
       sodipodi:end="1.6000031"
       sodipodi:start="0.99367904"
       sodipodi:ry="8.2308712"
       sodipodi:rx="6.0043578"
       sodipodi:cy="7.6063552"
       sodipodi:cx="-255.05418"
       sodipodi:type="arc"
       id="path8654"
       style="opacity:1;fill:none;fill-opacity:1;fill-rule:evenodd;stroke:#000000;stroke-width:0.38898426;stroke-linejoin:miter;stroke-miterlimit:4;stroke-dasharray:none;stroke-dashoffset:9.99999905;stroke-opacity:0.30314965;paint-order:markers stroke fill"
       inkscape:transform-center-x="2.1278004"
       inkscape:transform-center-y="3.127058" />
    <path
       inkscape:transform-center-y="3.2170421"
       inkscape:transform-center-x="-2.7550541"
       style="opacity:1;fill:none;fill-opacity:1;fill-rule:evenodd;stroke:#000000;stroke-width:0.40151075;stroke-linejoin:miter;stroke-miterlimit:4;stroke-dasharray:none;stroke-dashoffset:9.99999905;stroke-opacity:0.30314965;paint-order:markers stroke fill"
       id="path8656"
       sodipodi:type="arc"
       sodipodi:cx="-43.917675"
       sodipodi:cy="-252.07356"
       sodipodi:rx="6.3413072"
       sodipodi:ry="8.3035507"
       sodipodi:start="0.99367904"
       sodipodi:end="1.6000031"
       sodipodi:open="true"
       d="m -40.457792,-245.11486 a 6.3413072,8.3035507 0 0 1 -3.645066,1.34131"
       transform="matrix(0.79616733,-0.60507651,-0.54639223,-0.83752942,0,0)" />
    <path
       transform="matrix(0.91166514,-0.41093389,-0.34446308,-0.93879987,0,0)"
       d="m 17.439617,-250.95345 a 6.3413072,8.3035517 0 0 1 -0.729512,0.44915"
       sodipodi:open="true"
       sodipodi:end="1.194889"
       sodipodi:start="1.0676802"
       sodipodi:ry="8.3035517"
       sodipodi:rx="6.3413072"
       sodipodi:cy="-258.22806"
       sodipodi:cx="14.382106"
       sodipodi:type="arc"
       id="path8658"
       style="opacity:1;fill:none;fill-opacity:1;fill-rule:evenodd;stroke:#000000;stroke-width:0.40151075;stroke-linejoin:miter;stroke-miterlimit:4;stroke-dasharray:none;stroke-dashoffset:9.99999905;stroke-opacity:0.30314965;paint-order:markers stroke fill"
       inkscape:transform-center-x="-3.4181007"
       inkscape:transform-center-y="1.9366141" />
    <path
       style="opacity:1;fill:none;fill-opacity:1;fill-rule:evenodd;stroke:#000000;stroke-width:0.46446019;stroke-linejoin:miter;stroke-miterlimit:4;stroke-dasharray:none;stroke-dashoffset:9.99999905;stroke-opacity:0.30314965;paint-order:markers stroke fill"
       id="circle9366"
       sodipodi:type="arc"
       sodipodi:cx="-141.85594"
       sodipodi:cy="206.68277"
       sodipodi:rx="2.0475686"
       sodipodi:ry="2.0475686"
       sodipodi:start="0.049585219"
       sodipodi:end="5.0980835"
       d="m -139.81089,206.78426 a 2.0475686,2.0475686 0 0 1 -1.52047,1.87774 2.0475686,2.0475686 0 0 1 -2.2509,-0.87816 2.0475686,2.0475686 0 0 1 0.15284,-2.41131 2.0475686,2.0475686 0 0 1 2.34378,-0.58691"
       sodipodi:open="true"
       transform="matrix(-0.86602541,-0.49999999,-0.49999999,0.86602541,0,0)" />
    <path
       transform="matrix(-0.30742949,-0.95157086,0.97235662,-0.23350076,0,0)"
       d="m -243.34069,-61.027127 a 5.7155108,7.9523783 0 0 1 -4.38776,2.586984"
       sodipodi:open="true"
       sodipodi:end="1.6000031"
       sodipodi:start="0.73996766"
       sodipodi:ry="7.9523783"
       sodipodi:rx="5.7155108"
       sodipodi:cy="-66.38913"
       sodipodi:cx="-247.56154"
       sodipodi:type="arc"
       id="path9370"
       style="opacity:1;fill:none;fill-opacity:1;fill-rule:evenodd;stroke:#000000;stroke-width:0.46514651;stroke-linejoin:miter;stroke-miterlimit:4;stroke-dasharray:none;stroke-dashoffset:9.99999905;stroke-opacity:0.30314965;paint-order:markers stroke fill"
       inkscape:transform-center-x="1.3233965"
       inkscape:transform-center-y="-6.0311807" />
    <path
       transform="matrix(-0.80952822,0.58708096,-0.67071636,-0.74171394,0,0)"
       d="m 157.4785,-210.3148 a 5.8977323,7.4741945 0 0 1 -3.70726,-1.32397"
       sodipodi:open="true"
       sodipodi:end="2.1781127"
       sodipodi:start="1.5128381"
       sodipodi:ry="7.4741945"
       sodipodi:rx="5.8977323"
       sodipodi:cy="-217.77644"
       sodipodi:cx="157.13687"
       sodipodi:type="arc"
       id="path9372"
       style="opacity:1;fill:none;fill-opacity:1;fill-rule:evenodd;stroke:#000000;stroke-width:0.43394205;stroke-linejoin:miter;stroke-miterlimit:4;stroke-dasharray:none;stroke-dashoffset:9.99999905;stroke-opacity:0.30314965;paint-order:markers stroke fill"
       inkscape:transform-center-x="4.4493948"
       inkscape:transform-center-y="-1.9889181" />
    <path
       style="opacity:1;fill:none;fill-opacity:1;fill-rule:evenodd;stroke:#000000;stroke-width:0.46446019;stroke-linejoin:miter;stroke-miterlimit:4;stroke-dasharray:none;stroke-dashoffset:9.99999905;stroke-opacity:0.30314965;paint-order:markers stroke fill"
       id="path9374"
       sodipodi:type="arc"
       sodipodi:cx="-230.52469"
       sodipodi:cy="-97.282249"
       sodipodi:rx="2.0475683"
       sodipodi:ry="2.0475683"
       sodipodi:start="5.1270083"
       sodipodi:end="5.1252186"
       d="m -229.69984,-99.156327 a 2.0475683,2.0475683 0 0 1 1.0496,2.698085 2.0475683,2.0475683 0 0 1 -2.69762,1.050807 2.0475683,2.0475683 0 0 1 -1.05201,-2.697144 2.0475683,2.0475683 0 0 1 2.69667,-1.053221"
       sodipodi:open="true"
       transform="matrix(0.34464699,-0.93873236,-0.93873236,-0.34464699,0,0)" />
    <path
       style="opacity:1;fill:none;fill-opacity:1;fill-rule:evenodd;stroke:#000000;stroke-width:0.49996433;stroke-linejoin:miter;stroke-miterlimit:4;stroke-dasharray:none;stroke-dashoffset:9.99999905;stroke-opacity:0.30314965;paint-order:markers stroke fill"
       id="circle9397"
       sodipodi:type="arc"
       sodipodi:cx="-268.03085"
       sodipodi:cy="-97.232346"
       sodipodi:rx="1.5383575"
       sodipodi:ry="1.5383575"
       sodipodi:start="0.78539816"
       sodipodi:end="5.7595865"
       d="m -266.94307,-96.144563 a 1.5383575,1.5383575 0 0 1 -1.76818,0.291928 1.5383575,1.5383575 0 0 1 -0.8448,-1.580507 1.5383575,1.5383575 0 0 1 1.22508,-1.308002 1.5383575,1.5383575 0 0 1 1.63237,0.73962"
       sodipodi:open="true"
       transform="matrix(0,-1,-1,0,0,0)" />
    <circle
       r="1.5383575"
       cy="268.14722"
       cx="-92.706581"
       id="circle9401"
       style="opacity:1;fill:none;fill-opacity:1;fill-rule:evenodd;stroke:#000000;stroke-width:0.49996433;stroke-linejoin:miter;stroke-miterlimit:4;stroke-dasharray:none;stroke-dashoffset:9.99999905;stroke-opacity:0.30314965;paint-order:markers stroke fill"
       transform="scale(-1,1)" />
    <rect
       ry="0"
       y="-24.740379"
       x="-283.25183"
       height="0.024853501"
       width="3.6828418"
       id="rect9411"
       style="opacity:1;fill:none;fill-opacity:1;fill-rule:evenodd;stroke:#000000;stroke-width:0.4999643;stroke-linecap:square;stroke-linejoin:miter;stroke-miterlimit:4;stroke-dasharray:none;stroke-dashoffset:9.99999905;stroke-opacity:0.30314965;paint-order:markers stroke fill"
       transform="matrix(-0.25881903,-0.96592583,-0.96592583,0.25881903,0,0)" />
    <rect
       ry="0"
       y="265.00873"
       x="-96.069931"
       height="0.022384401"
       width="3.7179146"
       id="rect9419"
       style="opacity:1;fill:none;fill-opacity:1;fill-rule:evenodd;stroke:#000000;stroke-width:0.4744128;stroke-linecap:square;stroke-linejoin:miter;stroke-miterlimit:4;stroke-dasharray:none;stroke-dashoffset:9.99999905;stroke-opacity:0.30314965;paint-order:markers stroke fill"
       transform="scale(-1,1)" />
    <rect
       ry="0"
       y="263.53284"
       x="-95.812675"
       height="0.10676333"
       width="0.16974597"
       id="rect9421"
       style="opacity:1;fill:none;fill-opacity:1;fill-rule:evenodd;stroke:#000000;stroke-width:0.22246644;stroke-linecap:square;stroke-linejoin:miter;stroke-miterlimit:4;stroke-dasharray:none;stroke-dashoffset:9.99999905;stroke-opacity:0.30314965;paint-order:markers stroke fill"
       transform="scale(-1,1)" />
    <path
       style="opacity:1;fill:none;fill-opacity:1;fill-rule:evenodd;stroke:#000000;stroke-width:0.46231997;stroke-linejoin:miter;stroke-miterlimit:4;stroke-dasharray:none;stroke-dashoffset:9.99999905;stroke-opacity:0.30314965;paint-order:markers stroke fill"
       id="circle9468"
       sodipodi:type="arc"
       sodipodi:cx="-201.3694"
       sodipodi:cy="205.64088"
       sodipodi:rx="1.4225283"
       sodipodi:ry="1.4225283"
       sodipodi:start="0"
       sodipodi:end="4.9593182"
       sodipodi:open="true"
       d="m -199.94687,205.64088 a 1.4225283,1.4225283 0 0 1 -0.96027,1.34533 1.4225283,1.4225283 0 0 1 -1.58436,-0.47098 1.4225283,1.4225283 0 0 1 -0.0694,-1.65142 1.4225283,1.4225283 0 0 1 1.53923,-0.60231"
       transform="matrix(-0.75053124,-0.66083497,-0.66083497,0.75053124,0,0)" />
    <circle
       r="1.4225283"
       cy="287.41174"
       cx="-11.395002"
       id="circle9470"
       style="opacity:1;fill:none;fill-opacity:1;fill-rule:evenodd;stroke:#000000;stroke-width:0.46231997;stroke-linejoin:miter;stroke-miterlimit:4;stroke-dasharray:none;stroke-dashoffset:9.99999905;stroke-opacity:0.30314965;paint-order:markers stroke fill"
       transform="scale(-1,1)" />
    <circle
       style="opacity:1;fill:none;fill-opacity:1;fill-rule:evenodd;stroke:#000000;stroke-width:0.46231997;stroke-linejoin:miter;stroke-miterlimit:4;stroke-dasharray:none;stroke-dashoffset:9.99999905;stroke-opacity:0.30314965;paint-order:markers stroke fill"
       id="circle9474"
       cx="-7.5505919"
       cy="287.41174"
       r="1.4225283"
       transform="scale(-1,1)" />
    <rect
       transform="matrix(-0.25881907,-0.96592582,-0.96592582,0.25881907,0,0)"
       style="opacity:1;fill:none;fill-opacity:1;fill-rule:evenodd;stroke:#000000;stroke-width:0.46231994;stroke-linecap:square;stroke-linejoin:miter;stroke-miterlimit:4;stroke-dasharray:none;stroke-dashoffset:9.99999905;stroke-opacity:0.30314965;paint-order:markers stroke fill"
       id="rect9476"
       width="3.4055457"
       height="0.02298218"
       x="-280.90555"
       y="59.568851"
       ry="0" />
    <rect
       style="opacity:1;fill:none;fill-opacity:1;fill-rule:evenodd;stroke:#000000;stroke-width:0.44564599;stroke-linecap:square;stroke-linejoin:miter;stroke-miterlimit:4;stroke-dasharray:none;stroke-dashoffset:9.99999905;stroke-opacity:0.30314965;paint-order:markers stroke fill"
       id="rect9478"
       width="6.3000998"
       height="0.012094337"
       x="-14.00767"
       y="284.7323"
       ry="0"
       transform="scale(-1,1)" />
    <path
       style="opacity:1;fill:none;fill-opacity:1;fill-rule:evenodd;stroke:#000000;stroke-width:0.37311348;stroke-linejoin:miter;stroke-miterlimit:4;stroke-dasharray:none;stroke-dashoffset:9.99999905;stroke-opacity:0.30314965;paint-order:markers stroke fill"
       id="path8635"
       sodipodi:type="arc"
       sodipodi:cx="-255.23242"
       sodipodi:cy="-56.051014"
       sodipodi:rx="3.9487844"
       sodipodi:ry="3.9487844"
       sodipodi:start="0.3386981"
       sodipodi:end="5.7088805"
       d="m -251.50798,-54.738993 a 3.9487844,3.9487844 0 0 1 -4.15969,2.612703 3.9487844,3.9487844 0 0 1 -3.48617,-3.460619 3.9487844,3.9487844 0 0 1 2.58204,-4.178799 3.9487844,3.9487844 0 0 1 4.65466,1.569512"
       sodipodi:open="true"
       transform="matrix(-0.12163291,-0.99257515,-0.99257515,0.12163291,0,0)" />
    <circle
       r="1.4574662"
       cy="249.10437"
       cx="-80.653084"
       id="circle8637"
       style="opacity:1;fill:none;fill-opacity:1;fill-rule:evenodd;stroke:#000000;stroke-width:0.37311348;stroke-linejoin:miter;stroke-miterlimit:4;stroke-dasharray:none;stroke-dashoffset:9.99999905;stroke-opacity:0.30314965;paint-order:markers stroke fill"
       transform="scale(-1,1)" />
    <path
       style="opacity:1;fill:none;fill-opacity:1;fill-rule:evenodd;stroke:#000000;stroke-width:0.36308858;stroke-linejoin:miter;stroke-miterlimit:4;stroke-dasharray:none;stroke-dashoffset:9.99999905;stroke-opacity:0.30314965;paint-order:markers stroke fill"
       id="path8639"
       sodipodi:type="arc"
       sodipodi:cx="-86.137939"
       sodipodi:cy="-248.98634"
       sodipodi:rx="5.7618723"
       sodipodi:ry="7.4732571"
       sodipodi:start="0.27311129"
       sodipodi:end="1.6000031"
       sodipodi:open="true"
       d="m -80.589623,-246.97059 a 5.7618723,7.4732571 0 0 1 -5.716578,5.45432"
       transform="scale(-1)" />
    <rect
       style="opacity:1;fill:none;fill-opacity:1;fill-rule:evenodd;stroke:#000000;stroke-width:0.37311348;stroke-linecap:square;stroke-linejoin:miter;stroke-miterlimit:4;stroke-dasharray:none;stroke-dashoffset:9.99999905;stroke-opacity:0.30314965;paint-order:markers stroke fill"
       id="rect9493"
       width="5.6537466"
       height="0.02233341"
       x="-246.08208"
       y="-86.637054"
       ry="0"
       transform="matrix(0,-1,-1,0,0,0)" />
    <rect
       style="opacity:1;fill:none;fill-opacity:1;fill-rule:evenodd;stroke:#000000;stroke-width:0.18721201;stroke-linecap:square;stroke-linejoin:miter;stroke-miterlimit:4;stroke-dasharray:none;stroke-dashoffset:9.99999905;stroke-opacity:0.30314965;paint-order:markers stroke fill"
       id="rect9495"
       width="0.12068427"
       height="0.076441482"
       x="-86.303101"
       y="240.37662"
       ry="0"
       transform="scale(-1,1)" />
    <path
       transform="matrix(-0.75053124,-0.66083497,-0.66083497,0.75053124,0,0)"
       d="m -204.97497,150.62929 a 1.6028188,1.6028188 0 0 1 -1.08197,1.51583 1.6028188,1.6028188 0 0 1 -1.78516,-0.53067 1.6028188,1.6028188 0 0 1 -0.0782,-1.86072 1.6028188,1.6028188 0 0 1 1.73431,-0.67864"
       sodipodi:open="true"
       sodipodi:end="4.9593182"
       sodipodi:start="0"
       sodipodi:ry="1.6028188"
       sodipodi:rx="1.6028188"
       sodipodi:cy="150.62929"
       sodipodi:cx="-206.57779"
       sodipodi:type="arc"
       id="path9597"
       style="opacity:1;fill:none;fill-opacity:1;fill-rule:evenodd;stroke:#000000;stroke-width:0.5209142;stroke-linejoin:miter;stroke-miterlimit:4;stroke-dasharray:none;stroke-dashoffset:9.99999905;stroke-opacity:0.30314965;paint-order:markers stroke fill" />
    <circle
       style="opacity:1;fill:none;fill-opacity:1;fill-rule:evenodd;stroke:#000000;stroke-width:0.5209142;stroke-linejoin:miter;stroke-miterlimit:4;stroke-dasharray:none;stroke-dashoffset:9.99999905;stroke-opacity:0.30314965;paint-order:markers stroke fill"
       id="circle9599"
       cx="-51.170422"
       cy="249.56569"
       r="1.6028188"
       transform="scale(-1,1)" />
    <circle
       r="1.6028188"
       cy="249.56569"
       cx="-46.838772"
       id="circle9601"
       style="opacity:1;fill:none;fill-opacity:1;fill-rule:evenodd;stroke:#000000;stroke-width:0.5209142;stroke-linejoin:miter;stroke-miterlimit:4;stroke-dasharray:none;stroke-dashoffset:9.99999905;stroke-opacity:0.30314965;paint-order:markers stroke fill"
       transform="scale(-1,1)" />
    <rect
       ry="0"
       y="10.870327"
       x="-254.68652"
       height="0.025894932"
       width="3.837163"
       id="rect9603"
       style="opacity:1;fill:none;fill-opacity:1;fill-rule:evenodd;stroke:#000000;stroke-width:0.5209142;stroke-linecap:square;stroke-linejoin:miter;stroke-miterlimit:4;stroke-dasharray:none;stroke-dashoffset:9.99999905;stroke-opacity:0.30314965;paint-order:markers stroke fill"
       transform="matrix(-0.25881906,-0.96592582,-0.96592582,0.25881906,0,0)" />
    <path
       transform="matrix(-0.12163291,-0.99257515,-0.99257515,0.12163291,0,0)"
       sodipodi:open="true"
       d="m -285.63453,-8.9497418 a 3.9487844,3.9487844 0 0 1 -4.15969,2.6127031 3.9487844,3.9487844 0 0 1 -3.48617,-3.4606191 3.9487844,3.9487844 0 0 1 2.58203,-4.1787992 3.9487844,3.9487844 0 0 1 4.65466,1.569512"
       sodipodi:end="5.7088805"
       sodipodi:start="0.3386981"
       sodipodi:ry="3.9487844"
       sodipodi:rx="3.9487844"
       sodipodi:cy="-10.261763"
       sodipodi:cx="-289.35898"
       sodipodi:type="arc"
       id="path9617"
       style="opacity:1;fill:none;fill-opacity:1;fill-rule:evenodd;stroke:#000000;stroke-width:0.37311348;stroke-linejoin:miter;stroke-miterlimit:4;stroke-dasharray:none;stroke-dashoffset:9.99999905;stroke-opacity:0.30314965;paint-order:markers stroke fill" />
    <circle
       style="opacity:1;fill:none;fill-opacity:1;fill-rule:evenodd;stroke:#000000;stroke-width:0.37311348;stroke-linejoin:miter;stroke-miterlimit:4;stroke-dasharray:none;stroke-dashoffset:9.99999905;stroke-opacity:0.30314965;paint-order:markers stroke fill"
       id="circle9619"
       cx="-39.354721"
       cy="288.54703"
       r="1.4574662"
       transform="scale(-1,1)" />
    <path
       transform="scale(-1)"
       d="m -39.29126,-286.41326 a 5.7618723,7.4732571 0 0 1 -5.716578,5.45431"
       sodipodi:open="true"
       sodipodi:end="1.6000031"
       sodipodi:start="0.27311129"
       sodipodi:ry="7.4732571"
       sodipodi:rx="5.7618723"
       sodipodi:cy="-288.42902"
       sodipodi:cx="-44.839577"
       sodipodi:type="arc"
       id="path9621"
       style="opacity:1;fill:none;fill-opacity:1;fill-rule:evenodd;stroke:#000000;stroke-width:0.36308858;stroke-linejoin:miter;stroke-miterlimit:4;stroke-dasharray:none;stroke-dashoffset:9.99999905;stroke-opacity:0.30314965;paint-order:markers stroke fill" />
    <rect
       transform="matrix(0,-1,-1,0,0,0)"
       ry="0"
       y="-45.338692"
       x="-285.52475"
       height="0.02233341"
       width="5.6537466"
       id="rect9631"
       style="opacity:1;fill:none;fill-opacity:1;fill-rule:evenodd;stroke:#000000;stroke-width:0.37311348;stroke-linecap:square;stroke-linejoin:miter;stroke-miterlimit:4;stroke-dasharray:none;stroke-dashoffset:9.99999905;stroke-opacity:0.30314965;paint-order:markers stroke fill" />
    <rect
       ry="0"
       y="279.81927"
       x="-45.004742"
       height="0.076441482"
       width="0.12068427"
       id="rect9633"
       style="opacity:1;fill:none;fill-opacity:1;fill-rule:evenodd;stroke:#000000;stroke-width:0.18721201;stroke-linecap:square;stroke-linejoin:miter;stroke-miterlimit:4;stroke-dasharray:none;stroke-dashoffset:9.99999905;stroke-opacity:0.30314965;paint-order:markers stroke fill"
       transform="scale(-1,1)" />
    <path
       transform="matrix(-0.86602541,-0.49999999,-0.49999999,0.86602541,0,0)"
       sodipodi:open="true"
       d="m -212.94398,206.14259 a 2.0475686,2.0475686 0 0 1 -1.52047,1.87775 2.0475686,2.0475686 0 0 1 -2.2509,-0.87817 2.0475686,2.0475686 0 0 1 0.15285,-2.4113 2.0475686,2.0475686 0 0 1 2.34377,-0.58691"
       sodipodi:end="5.0980835"
       sodipodi:start="0.049585219"
       sodipodi:ry="2.0475686"
       sodipodi:rx="2.0475686"
       sodipodi:cy="206.04111"
       sodipodi:cx="-214.98903"
       sodipodi:type="arc"
       id="path9637"
       style="opacity:1;fill:none;fill-opacity:1;fill-rule:evenodd;stroke:#000000;stroke-width:0.46446019;stroke-linejoin:miter;stroke-miterlimit:4;stroke-dasharray:none;stroke-dashoffset:9.99999905;stroke-opacity:0.30314965;paint-order:markers stroke fill" />
    <path
       inkscape:transform-center-y="-6.0311807"
       inkscape:transform-center-x="1.3233965"
       style="opacity:1;fill:none;fill-opacity:1;fill-rule:evenodd;stroke:#000000;stroke-width:0.46514651;stroke-linejoin:miter;stroke-miterlimit:4;stroke-dasharray:none;stroke-dashoffset:9.99999905;stroke-opacity:0.30314965;paint-order:markers stroke fill"
       id="path9641"
       sodipodi:type="arc"
       sodipodi:cx="-297.58813"
       sodipodi:cy="-16.740385"
       sodipodi:rx="5.7155108"
       sodipodi:ry="7.9523783"
       sodipodi:start="0.73996766"
       sodipodi:end="1.6000031"
       sodipodi:open="true"
       d="m -293.36729,-11.378382 a 5.7155108,7.9523783 0 0 1 -4.38775,2.5869836"
       transform="matrix(-0.30742949,-0.95157086,0.97235662,-0.23350076,0,0)" />
    <path
       inkscape:transform-center-y="-1.9960735"
       inkscape:transform-center-x="4.2619031"
       style="opacity:1;fill:none;fill-opacity:1;fill-rule:evenodd;stroke:#000000;stroke-width:0.42464012;stroke-linejoin:miter;stroke-miterlimit:4;stroke-dasharray:none;stroke-dashoffset:9.99999905;stroke-opacity:0.30314965;paint-order:markers stroke fill"
       id="path9643"
       sodipodi:type="arc"
       sodipodi:cx="127.26286"
       sodipodi:cy="-281.03183"
       sodipodi:rx="5.7435999"
       sodipodi:ry="7.3492632"
       sodipodi:start="1.5128381"
       sodipodi:end="2.1781127"
       sodipodi:open="true"
       d="m 127.59557,-273.69491 a 5.7435999,7.3492632 0 0 1 -3.61038,-1.30183"
       transform="matrix(-0.79622191,0.60500468,-0.65337238,-0.75703668,0,0)" />
    <path
       transform="matrix(0.34464699,-0.93873236,-0.93873236,-0.34464699,0,0)"
       sodipodi:open="true"
       d="m -241.56555,-171.32325 a 2.0475683,2.0475683 0 0 1 1.0496,2.69808 2.0475683,2.0475683 0 0 1 -2.69761,1.05081 2.0475683,2.0475683 0 0 1 -1.05202,-2.69714 2.0475683,2.0475683 0 0 1 2.69667,-1.05322"
       sodipodi:end="5.1252186"
       sodipodi:start="5.1270083"
       sodipodi:ry="2.0475683"
       sodipodi:rx="2.0475683"
       sodipodi:cy="-169.44917"
       sodipodi:cx="-242.3904"
       sodipodi:type="arc"
       id="path9645"
       style="opacity:1;fill:none;fill-opacity:1;fill-rule:evenodd;stroke:#000000;stroke-width:0.46446019;stroke-linejoin:miter;stroke-miterlimit:4;stroke-dasharray:none;stroke-dashoffset:9.99999905;stroke-opacity:0.30314965;paint-order:markers stroke fill" />
    <path
       style="opacity:1;fill:none;fill-opacity:1;fill-rule:evenodd;stroke:#000000;stroke-width:0.37311348;stroke-linejoin:miter;stroke-miterlimit:4;stroke-dasharray:none;stroke-dashoffset:9.99999905;stroke-opacity:0.30314965;paint-order:markers stroke fill"
       id="path4721"
       sodipodi:type="arc"
       sodipodi:cx="-236.05055"
       sodipodi:cy="-2.8462029"
       sodipodi:rx="3.9487844"
       sodipodi:ry="3.9487844"
       sodipodi:start="0.3386981"
       sodipodi:end="5.7088805"
       d="m -232.32611,-1.534182 a 3.9487844,3.9487844 0 0 1 -4.15969,2.6127031 3.9487844,3.9487844 0 0 1 -3.48617,-3.4606191 3.9487844,3.9487844 0 0 1 2.58204,-4.1787991 3.9487844,3.9487844 0 0 1 4.65466,1.5695122"
       sodipodi:open="true"
       transform="matrix(-0.12163291,-0.99257515,-0.99257515,0.12163291,0,0)" />
    <circle
       r="1.4574662"
       cy="236.53639"
       cx="-25.51016"
       id="circle4723"
       style="opacity:1;fill:none;fill-opacity:1;fill-rule:evenodd;stroke:#000000;stroke-width:0.37311348;stroke-linejoin:miter;stroke-miterlimit:4;stroke-dasharray:none;stroke-dashoffset:9.99999905;stroke-opacity:0.30314965;paint-order:markers stroke fill"
       transform="scale(-1,1)" />
    <path
       style="opacity:1;fill:none;fill-opacity:1;fill-rule:evenodd;stroke:#000000;stroke-width:0.36534065;stroke-linejoin:miter;stroke-miterlimit:4;stroke-dasharray:none;stroke-dashoffset:9.99999905;stroke-opacity:0.30314965;paint-order:markers stroke fill"
       id="path4725"
       sodipodi:type="arc"
       sodipodi:cx="-31.0669"
       sodipodi:cy="-236.41725"
       sodipodi:rx="5.8349032"
       sodipodi:ry="7.471549"
       sodipodi:start="0.27311129"
       sodipodi:end="1.6000031"
       sodipodi:open="true"
       d="m -25.44826,-234.40196 a 5.8349032,7.471549 0 0 1 -5.789035,5.45307"
       transform="scale(-1)" />
    <rect
       style="opacity:1;fill:none;fill-opacity:1;fill-rule:evenodd;stroke:#000000;stroke-width:0.37311348;stroke-linecap:square;stroke-linejoin:miter;stroke-miterlimit:4;stroke-dasharray:none;stroke-dashoffset:9.99999905;stroke-opacity:0.30314965;paint-order:markers stroke fill"
       id="rect4735"
       width="5.6537466"
       height="0.02233341"
       x="-233.51408"
       y="-31.494131"
       ry="0"
       transform="matrix(0,-1,-1,0,0,0)" />
    <rect
       style="opacity:1;fill:none;fill-opacity:1;fill-rule:evenodd;stroke:#000000;stroke-width:0.22972447;stroke-linecap:square;stroke-linejoin:miter;stroke-miterlimit:4;stroke-dasharray:none;stroke-dashoffset:9.99999905;stroke-opacity:0.30314965;paint-order:markers stroke fill"
       id="rect4737"
       width="0.18171795"
       height="0.076441482"
       x="-30.987354"
       y="227.76187"
       ry="0"
       transform="scale(-1,1)" />
    <path
       transform="matrix(-0.8660254,-0.5,-0.5,0.8660254,0,0)"
       d="m -155.72507,223.19424 a 1.6447399,1.6447399 0 0 1 -1.10564,1.55388 1.6447399,1.6447399 0 0 1 -1.83044,-0.53524 1.6447399,1.6447399 0 0 1 -0.0943,-1.90476 1.6447399,1.6447399 0 0 1 1.76863,-0.7134"
       sodipodi:open="true"
       sodipodi:end="4.947409"
       sodipodi:start="0"
       sodipodi:ry="1.6447399"
       sodipodi:rx="1.6447399"
       sodipodi:cy="223.19424"
       sodipodi:cx="-157.36981"
       sodipodi:type="arc"
       id="path4741"
       style="opacity:1;fill:none;fill-opacity:1;fill-rule:evenodd;stroke:#000000;stroke-width:0.42105579;stroke-linejoin:miter;stroke-miterlimit:4;stroke-dasharray:none;stroke-dashoffset:9.99999905;stroke-opacity:0.30314965;paint-order:markers stroke fill" />
    <circle
       style="opacity:1;fill:none;fill-opacity:1;fill-rule:evenodd;stroke:#000000;stroke-width:0.42105579;stroke-linejoin:miter;stroke-miterlimit:4;stroke-dasharray:none;stroke-dashoffset:9.99999905;stroke-opacity:0.30314965;paint-order:markers stroke fill"
       id="circle4743"
       cx="-18.88023"
       cy="271.97672"
       r="1.6447399"
       transform="scale(-1,1)" />
    <path
       inkscape:transform-center-y="3.1171267"
       inkscape:transform-center-x="2.1278044"
       style="opacity:1;fill:none;fill-opacity:1;fill-rule:evenodd;stroke:#000000;stroke-width:0.38842207;stroke-linejoin:miter;stroke-miterlimit:4;stroke-dasharray:none;stroke-dashoffset:9.99999905;stroke-opacity:0.30314965;paint-order:markers stroke fill"
       id="path4745"
       sodipodi:type="arc"
       sodipodi:cx="-265.36194"
       sodipodi:cy="95.975502"
       sodipodi:rx="5.9893179"
       sodipodi:ry="8.227706"
       sodipodi:start="0.99367904"
       sodipodi:end="1.6000031"
       sodipodi:open="true"
       d="m -262.0941,102.87064 a 5.9893179,8.227706 0 0 1 -3.44274,1.32906"
       transform="matrix(-0.46084078,-0.88748283,-0.93777964,0.34723098,0,0)" />
    <path
       transform="matrix(0.79616733,-0.60507651,-0.54639223,-0.83752942,0,0)"
       d="m -127.53766,-229.56059 a 6.3413072,8.3035507 0 0 1 -3.64507,1.34131"
       sodipodi:open="true"
       sodipodi:end="1.6000031"
       sodipodi:start="0.99367904"
       sodipodi:ry="8.3035507"
       sodipodi:rx="6.3413072"
       sodipodi:cy="-236.51929"
       sodipodi:cx="-130.99754"
       sodipodi:type="arc"
       id="path4747"
       style="opacity:1;fill:none;fill-opacity:1;fill-rule:evenodd;stroke:#000000;stroke-width:0.40151075;stroke-linejoin:miter;stroke-miterlimit:4;stroke-dasharray:none;stroke-dashoffset:9.99999905;stroke-opacity:0.30314965;paint-order:markers stroke fill"
       inkscape:transform-center-x="-2.7550541"
       inkscape:transform-center-y="3.2170421" />
    <path
       inkscape:transform-center-y="1.9366141"
       inkscape:transform-center-x="-3.4181007"
       style="opacity:1;fill:none;fill-opacity:1;fill-rule:evenodd;stroke:#000000;stroke-width:0.40151075;stroke-linejoin:miter;stroke-miterlimit:4;stroke-dasharray:none;stroke-dashoffset:9.99999905;stroke-opacity:0.30314965;paint-order:markers stroke fill"
       id="path4749"
       sodipodi:type="arc"
       sodipodi:cx="-72.570122"
       sodipodi:cy="-262.4155"
       sodipodi:rx="6.3413072"
       sodipodi:ry="8.3035517"
       sodipodi:start="1.0676802"
       sodipodi:end="1.194889"
       sodipodi:open="true"
       d="m -69.512611,-255.14089 a 6.3413072,8.3035517 0 0 1 -0.729511,0.44915"
       transform="matrix(0.91166514,-0.41093389,-0.34446308,-0.93879987,0,0)" />
    <g
       id="g5639"
       transform="translate(7.1437498,-33.602083)">
      <rect
         transform="matrix(-0.37193766,-0.92825771,-0.83385148,0.55198887,0,0)"
         style="opacity:1;fill:none;fill-opacity:1;fill-rule:evenodd;stroke:#000000;stroke-width:0.34508491;stroke-linecap:square;stroke-linejoin:miter;stroke-miterlimit:4;stroke-dasharray:none;stroke-dashoffset:9.99999905;stroke-opacity:0.30314965;paint-order:markers stroke fill"
         id="rect9605"
         width="2.3165467"
         height="0.0035787406"
         x="-260.48862"
         y="44.343655"
         ry="0" />
      <path
         style="opacity:1;fill:none;fill-opacity:1;fill-rule:evenodd;stroke:#000000;stroke-width:0.42448303;stroke-linejoin:miter;stroke-miterlimit:4;stroke-dasharray:none;stroke-dashoffset:9.99999905;stroke-opacity:0.30314965;paint-order:markers stroke fill"
         id="path4791"
         sodipodi:type="arc"
         sodipodi:cx="-241.34889"
         sodipodi:cy="126.44499"
         sodipodi:rx="2.3698514"
         sodipodi:ry="2.3698514"
         sodipodi:start="0.26179939"
         sodipodi:end="0.25990363"
         d="m -239.05979,127.05835 a 2.3698514,2.3698514 0 0 1 -2.90138,1.67603 2.3698514,2.3698514 0 0 1 -1.6774,-2.90058 2.3698514,2.3698514 0 0 1 2.89979,-1.67878 2.3698514,2.3698514 0 0 1 1.68015,2.89899"
         transform="matrix(-0.62972009,-0.77682212,-0.77682212,0.62972009,0,0)"
         sodipodi:open="true" />
      <rect
         transform="scale(-1,1)"
         style="opacity:1;fill:none;fill-opacity:1;fill-rule:evenodd;stroke:#000000;stroke-width:0.4134075;stroke-linecap:square;stroke-linejoin:miter;stroke-miterlimit:4;stroke-dasharray:none;stroke-dashoffset:9.99999905;stroke-opacity:0.30314965;paint-order:markers stroke fill"
         id="rect4793"
         width="2.8459635"
         height="0.022724438"
         x="-58.702297"
         y="264.95447"
         ry="0" />
      <path
         sodipodi:open="true"
         transform="matrix(-0.62972009,-0.77682212,-0.77682212,0.62972009,0,0)"
         d="m -243.26678,121.86862 a 2.3698514,2.3698514 0 0 1 -2.71533,1.71784 2.3698514,2.3698514 0 0 1 -1.93181,-2.56751 2.3698514,2.3698514 0 0 1 2.40288,-2.13312"
         sodipodi:end="4.7313081"
         sodipodi:start="0.26179939"
         sodipodi:ry="2.3698514"
         sodipodi:rx="2.3698514"
         sodipodi:cy="121.25526"
         sodipodi:cx="-245.55588"
         sodipodi:type="arc"
         id="path5333"
         style="opacity:1;fill:none;fill-opacity:1;fill-rule:evenodd;stroke:#000000;stroke-width:0.42448303;stroke-linejoin:miter;stroke-miterlimit:4;stroke-dasharray:none;stroke-dashoffset:9.99999905;stroke-opacity:0.30314965;paint-order:markers stroke fill" />
      <path
         sodipodi:open="true"
         transform="matrix(-0.62972009,-0.77682212,-0.77682212,0.62972009,0,0)"
         d="m -245.12639,121.31491 a 0.39144713,0.39144713 0 0 1 -0.47925,0.27684 0.39144713,0.39144713 0 0 1 -0.27707,-0.47911 0.39144713,0.39144713 0 0 1 0.47898,-0.2773 0.39144713,0.39144713 0 0 1 0.27753,0.47885"
         sodipodi:end="0.25990363"
         sodipodi:start="0.26179939"
         sodipodi:ry="0.39144713"
         sodipodi:rx="0.39144713"
         sodipodi:cy="121.21359"
         sodipodi:cx="-245.5045"
         sodipodi:type="arc"
         id="path5335"
         style="opacity:1;fill:none;fill-opacity:1;fill-rule:evenodd;stroke:#000000;stroke-width:0.75066459;stroke-linejoin:miter;stroke-miterlimit:4;stroke-dasharray:none;stroke-dashoffset:9.99999905;stroke-opacity:0.30314965;paint-order:markers stroke fill" />
      <rect
         ry="0"
         y="263.62659"
         x="-61.015141"
         height="0.016800316"
         width="2.163975"
         id="rect5337"
         style="opacity:1;fill:none;fill-opacity:1;fill-rule:evenodd;stroke:#000000;stroke-width:0.47550216;stroke-linecap:square;stroke-linejoin:miter;stroke-miterlimit:4;stroke-dasharray:none;stroke-dashoffset:9.99999905;stroke-opacity:0.30314965;paint-order:markers stroke fill"
         transform="scale(-1,1)" />
      <path
         sodipodi:nodetypes="ccccc"
         inkscape:connector-curvature="0"
         id="rect5339"
         d="m 61.691828,263.78372 -0.905365,1.22679 v 0 l 1.462953,-0.80149 z"
         style="opacity:1;fill:none;fill-opacity:1;fill-rule:evenodd;stroke:#000000;stroke-width:0.493;stroke-linecap:square;stroke-linejoin:miter;stroke-miterlimit:4;stroke-dasharray:none;stroke-dashoffset:9.99999905;stroke-opacity:0.30314965;paint-order:markers stroke fill" />
    </g>
    <rect
       transform="scale(-1,1)"
       style="opacity:1;fill:none;fill-opacity:1;fill-rule:evenodd;stroke:#000000;stroke-width:0.6069566;stroke-linecap:square;stroke-linejoin:miter;stroke-miterlimit:4;stroke-dasharray:none;stroke-dashoffset:9.99999905;stroke-opacity:0.30314965;paint-order:markers stroke fill"
       id="rect5630"
       width="7.9876785"
       height="0.017452614"
       x="-53.93095"
       y="246.43533"
       ry="0" />
    <g
       transform="translate(1.7181785,0.26096522)"
       id="g5883">
      <rect
         ry="0"
         y="44.343655"
         x="-260.48862"
         height="0.0035787406"
         width="2.3165467"
         id="rect5869"
         style="opacity:1;fill:none;fill-opacity:1;fill-rule:evenodd;stroke:#000000;stroke-width:0.34508491;stroke-linecap:square;stroke-linejoin:miter;stroke-miterlimit:4;stroke-dasharray:none;stroke-dashoffset:9.99999905;stroke-opacity:0.30314965;paint-order:markers stroke fill"
         transform="matrix(-0.37193766,-0.92825771,-0.83385148,0.55198887,0,0)" />
      <path
         sodipodi:open="true"
         transform="matrix(-0.62972009,-0.77682212,-0.77682212,0.62972009,0,0)"
         d="m -239.05979,127.05835 a 2.3698514,2.3698514 0 0 1 -2.90138,1.67603 2.3698514,2.3698514 0 0 1 -1.6774,-2.90058 2.3698514,2.3698514 0 0 1 2.89979,-1.67878 2.3698514,2.3698514 0 0 1 1.68015,2.89899"
         sodipodi:end="0.25990363"
         sodipodi:start="0.26179939"
         sodipodi:ry="2.3698514"
         sodipodi:rx="2.3698514"
         sodipodi:cy="126.44499"
         sodipodi:cx="-241.34889"
         sodipodi:type="arc"
         id="path5871"
         style="opacity:1;fill:none;fill-opacity:1;fill-rule:evenodd;stroke:#000000;stroke-width:0.42448303;stroke-linejoin:miter;stroke-miterlimit:4;stroke-dasharray:none;stroke-dashoffset:9.99999905;stroke-opacity:0.30314965;paint-order:markers stroke fill" />
      <rect
         ry="0"
         y="264.95447"
         x="-58.702297"
         height="0.022724438"
         width="2.8459635"
         id="rect5873"
         style="opacity:1;fill:none;fill-opacity:1;fill-rule:evenodd;stroke:#000000;stroke-width:0.4134075;stroke-linecap:square;stroke-linejoin:miter;stroke-miterlimit:4;stroke-dasharray:none;stroke-dashoffset:9.99999905;stroke-opacity:0.30314965;paint-order:markers stroke fill"
         transform="scale(-1,1)" />
      <path
         style="opacity:1;fill:none;fill-opacity:1;fill-rule:evenodd;stroke:#000000;stroke-width:0.42448303;stroke-linejoin:miter;stroke-miterlimit:4;stroke-dasharray:none;stroke-dashoffset:9.99999905;stroke-opacity:0.30314965;paint-order:markers stroke fill"
         id="path5875"
         sodipodi:type="arc"
         sodipodi:cx="-245.55588"
         sodipodi:cy="121.25526"
         sodipodi:rx="2.3698514"
         sodipodi:ry="2.3698514"
         sodipodi:start="0.26179939"
         sodipodi:end="4.7313081"
         d="m -243.26678,121.86862 a 2.3698514,2.3698514 0 0 1 -2.71533,1.71784 2.3698514,2.3698514 0 0 1 -1.93181,-2.56751 2.3698514,2.3698514 0 0 1 2.40288,-2.13312"
         transform="matrix(-0.62972009,-0.77682212,-0.77682212,0.62972009,0,0)"
         sodipodi:open="true" />
      <path
         style="opacity:1;fill:none;fill-opacity:1;fill-rule:evenodd;stroke:#000000;stroke-width:0.75066459;stroke-linejoin:miter;stroke-miterlimit:4;stroke-dasharray:none;stroke-dashoffset:9.99999905;stroke-opacity:0.30314965;paint-order:markers stroke fill"
         id="path5877"
         sodipodi:type="arc"
         sodipodi:cx="-245.5045"
         sodipodi:cy="121.21359"
         sodipodi:rx="0.39144713"
         sodipodi:ry="0.39144713"
         sodipodi:start="0.26179939"
         sodipodi:end="0.25990363"
         d="m -245.12639,121.31491 a 0.39144713,0.39144713 0 0 1 -0.47925,0.27684 0.39144713,0.39144713 0 0 1 -0.27707,-0.47911 0.39144713,0.39144713 0 0 1 0.47898,-0.2773 0.39144713,0.39144713 0 0 1 0.27753,0.47885"
         transform="matrix(-0.62972009,-0.77682212,-0.77682212,0.62972009,0,0)"
         sodipodi:open="true" />
      <rect
         transform="scale(-1,1)"
         style="opacity:1;fill:none;fill-opacity:1;fill-rule:evenodd;stroke:#000000;stroke-width:0.47550216;stroke-linecap:square;stroke-linejoin:miter;stroke-miterlimit:4;stroke-dasharray:none;stroke-dashoffset:9.99999905;stroke-opacity:0.30314965;paint-order:markers stroke fill"
         id="rect5879"
         width="2.163975"
         height="0.016800316"
         x="-61.015141"
         y="263.62659"
         ry="0" />
      <path
         style="opacity:1;fill:none;fill-opacity:1;fill-rule:evenodd;stroke:#000000;stroke-width:0.493;stroke-linecap:square;stroke-linejoin:miter;stroke-miterlimit:4;stroke-dasharray:none;stroke-dashoffset:9.99999905;stroke-opacity:0.30314965;paint-order:markers stroke fill"
         d="m 61.691828,263.78372 -0.905365,1.22679 v 0 l 1.462953,-0.80149 z"
         id="path5881"
         inkscape:connector-curvature="0"
         sodipodi:nodetypes="ccccc" />
    </g>
  </g>
</svg>
